<svg width="17" height="17" viewBox="0 0 17 17" fill="none" xmlns="http://www.w3.org/2000/svg">
<path d="M10.5184 12.1021L7.70801 9.29165V5.33331H9.29134V8.63852L11.6268 10.9739L10.5184 12.1021ZM7.70801 3.74998V2.16665H9.29134V3.74998H7.70801ZM13.2497 9.29165V7.70831H14.833V9.29165H13.2497ZM7.70801 14.8333V13.25H9.29134V14.8333H7.70801ZM2.16634 9.29165V7.70831H3.74967V9.29165H2.16634ZM8.49967 16.4166C7.40454 16.4166 6.37537 16.2087 5.41217 15.7928C4.44898 15.3769 3.61113 14.813 2.89863 14.101C2.18613 13.3885 1.6222 12.5507 1.20684 11.5875C0.79148 10.6243 0.583536 9.59512 0.583008 8.49998C0.583008 7.40484 0.790952 6.37567 1.20684 5.41248C1.62273 4.44929 2.18666 3.61144 2.89863 2.89894C3.61113 2.18644 4.44898 1.62251 5.41217 1.20715C6.37537 0.791785 7.40454 0.583841 8.49967 0.583313C9.59481 0.583313 10.624 0.791258 11.5872 1.20715C12.5504 1.62304 13.3882 2.18697 14.1007 2.89894C14.8132 3.61144 15.3774 4.44929 15.7933 5.41248C16.2092 6.37567 16.4169 7.40484 16.4163 8.49998C16.4163 9.59512 16.2084 10.6243 15.7925 11.5875C15.3766 12.5507 14.8127 13.3885 14.1007 14.101C13.3882 14.8135 12.5504 15.3777 11.5872 15.7936C10.624 16.2095 9.59481 16.4172 8.49967 16.4166ZM8.49967 14.8333C10.2677 14.8333 11.7653 14.2198 12.9924 12.9927C14.2195 11.7656 14.833 10.268 14.833 8.49998C14.833 6.73192 14.2195 5.23435 12.9924 4.00727C11.7653 2.78019 10.2677 2.16665 8.49967 2.16665C6.73162 2.16665 5.23405 2.78019 4.00697 4.00727C2.77988 5.23435 2.16634 6.73192 2.16634 8.49998C2.16634 10.268 2.77988 11.7656 4.00697 12.9927C5.23405 14.2198 6.73162 14.8333 8.49967 14.8333Z" fill="#717171"/>
</svg>
