<svg width="17" height="17" viewBox="0 0 17 17" fill="none" xmlns="http://www.w3.org/2000/svg">
<path d="M10.5184 12.1021L7.70801 9.29168V5.33334H9.29134V8.63855L11.6268 10.974L10.5184 12.1021ZM7.70801 3.75001V2.16668H9.29134V3.75001H7.70801ZM13.2497 9.29168V7.70834H14.833V9.29168H13.2497ZM7.70801 14.8333V13.25H9.29134V14.8333H7.70801ZM2.16634 9.29168V7.70834H3.74967V9.29168H2.16634ZM8.49967 16.4167C7.40454 16.4167 6.37537 16.2087 5.41217 15.7928C4.44898 15.377 3.61113 14.813 2.89863 14.1011C2.18613 13.3886 1.6222 12.5507 1.20684 11.5875C0.79148 10.6243 0.583536 9.59515 0.583008 8.50001C0.583008 7.40487 0.790952 6.37571 1.20684 5.41251C1.62273 4.44932 2.18666 3.61147 2.89863 2.89897C3.61113 2.18647 4.44898 1.62254 5.41217 1.20718C6.37537 0.791816 7.40454 0.583871 8.49967 0.583344C9.59481 0.583344 10.624 0.791288 11.5872 1.20718C12.5504 1.62307 13.3882 2.187 14.1007 2.89897C14.8132 3.61147 15.3774 4.44932 15.7933 5.41251C16.2092 6.37571 16.4169 7.40487 16.4163 8.50001C16.4163 9.59515 16.2084 10.6243 15.7925 11.5875C15.3766 12.5507 14.8127 13.3886 14.1007 14.1011C13.3882 14.8136 12.5504 15.3777 11.5872 15.7936C10.624 16.2095 9.59481 16.4172 8.49967 16.4167ZM8.49967 14.8333C10.2677 14.8333 11.7653 14.2198 12.9924 12.9927C14.2195 11.7656 14.833 10.2681 14.833 8.50001C14.833 6.73195 14.2195 5.23439 12.9924 4.0073C11.7653 2.78022 10.2677 2.16668 8.49967 2.16668C6.73162 2.16668 5.23405 2.78022 4.00697 4.0073C2.77988 5.23439 2.16634 6.73195 2.16634 8.50001C2.16634 10.2681 2.77988 11.7656 4.00697 12.9927C5.23405 14.2198 6.73162 14.8333 8.49967 14.8333Z" fill="#DF7800"/>
</svg>
