<svg width="14" height="11" viewBox="0 0 14 11" fill="none" xmlns="http://www.w3.org/2000/svg">
<path d="M0 2.40625H6.13483L6.60674 3.4375H0.47191L0 2.40625ZM0.629214 4.46875H6.76405L7.23596 5.5H1.10112L0.629214 4.46875ZM10.8539 9.96875C11.3762 9.96875 11.7978 9.50813 11.7978 8.9375C11.7978 8.36687 11.3762 7.90625 10.8539 7.90625C10.3317 7.90625 9.91011 8.36687 9.91011 8.9375C9.91011 9.50813 10.3317 9.96875 10.8539 9.96875ZM11.7978 3.78125H10.2247V5.5H13.031L11.7978 3.78125ZM4.5618 9.96875C5.08404 9.96875 5.50562 9.50813 5.50562 8.9375C5.50562 8.36687 5.08404 7.90625 4.5618 7.90625C4.03955 7.90625 3.61798 8.36687 3.61798 8.9375C3.61798 9.50813 4.03955 9.96875 4.5618 9.96875ZM12.1124 2.75L14 5.5V8.9375H12.7416C12.7416 10.0787 11.8984 11 10.8539 11C9.80944 11 8.96629 10.0787 8.96629 8.9375H6.44944C6.44944 10.0787 5.6 11 4.5618 11C3.5173 11 2.67416 10.0787 2.67416 8.9375H1.41573V6.53125H2.67416V7.5625H3.15236C3.49843 7.14313 4.0018 6.875 4.5618 6.875C5.1218 6.875 5.62517 7.14313 5.97124 7.5625H8.96629V1.375H1.41573C1.41573 0.611875 1.97573 0 2.67416 0H10.2247V2.75H12.1124Z" fill="#C5C5C5"/>
</svg>
