<svg width="16" height="11" viewBox="0 0 16 11" fill="none" xmlns="http://www.w3.org/2000/svg">
<path d="M15.3578 0H0V6.48989C0 7.57979 0.842199 8.42199 1.9321 8.42199H2.47706V7.43117H1.9321C1.43669 7.43117 1.04036 7.03484 0.990823 6.48989V2.97247H11.8899V6.48989C11.8899 6.9853 11.4935 7.38163 10.9486 7.43117H10.4036V8.42199H10.9486C11.989 8.42199 12.8312 7.57979 12.8312 6.48989V0.990823H15.3082C15.6055 0.990823 15.8036 0.792658 15.8036 0.495411C15.8036 0.198165 15.655 0 15.3578 0Z" fill="#C5C5C5"/>
<path d="M6.44077 5.05313C4.85545 5.05313 3.56738 6.3412 3.56738 7.92652C3.56738 9.51183 4.85545 10.7999 6.44077 10.7999C8.02609 10.7999 9.31415 9.51183 9.31415 7.92652C9.31415 6.3412 8.02609 5.05313 6.44077 5.05313ZM6.93618 8.42193H5.94536V7.43111H6.93618V8.42193Z" fill="#C5C5C5"/>
</svg>
