<svg width="11" height="10" viewBox="0 0 11 10" fill="none" xmlns="http://www.w3.org/2000/svg">
<path d="M1.15487 10H9.84513C10.7338 10 11.2877 9.01808 10.8434 8.23607L6.49828 0.586506C6.05396 -0.195502 4.94604 -0.195502 4.50172 0.586506L0.156593 8.23607C-0.28773 9.01808 0.26623 10 1.15487 10ZM5.5 5.88417C5.18263 5.88417 4.92296 5.61958 4.92296 5.29619V4.12024C4.92296 3.79685 5.18263 3.53227 5.5 3.53227C5.81737 3.53227 6.07704 3.79685 6.07704 4.12024V5.29619C6.07704 5.61958 5.81737 5.88417 5.5 5.88417ZM6.07704 8.23607H4.92296V7.06012H6.07704V8.23607Z" fill="#FF0000"/>
</svg>
