<svg width="15" height="15" viewBox="0 0 15 15" fill="none" xmlns="http://www.w3.org/2000/svg">
<path d="M7.47656 0.0625C3.36934 0.0625 0.0390625 3.39277 0.0390625 7.5C0.0390625 11.6072 3.36934 14.9375 7.47656 14.9375C11.5838 14.9375 14.9141 11.6072 14.9141 7.5C14.9141 3.39277 11.5838 0.0625 7.47656 0.0625ZM8.00781 11.0859C8.00781 11.159 7.94805 11.2188 7.875 11.2188H7.07812C7.00508 11.2188 6.94531 11.159 6.94531 11.0859V6.57031C6.94531 6.49727 7.00508 6.4375 7.07812 6.4375H7.875C7.94805 6.4375 8.00781 6.49727 8.00781 6.57031V11.0859ZM7.47656 5.375C7.26803 5.37074 7.06948 5.28492 6.92351 5.13594C6.77754 4.98696 6.69579 4.7867 6.69579 4.57812C6.69579 4.36955 6.77754 4.16929 6.92351 4.02031C7.06948 3.87133 7.26803 3.78551 7.47656 3.78125C7.68509 3.78551 7.88364 3.87133 8.02961 4.02031C8.17558 4.16929 8.25734 4.36955 8.25734 4.57812C8.25734 4.7867 8.17558 4.98696 8.02961 5.13594C7.88364 5.28492 7.68509 5.37074 7.47656 5.375Z" fill="#DF7800"/>
</svg>
