<svg width="7" height="11" viewBox="0 0 7 11" fill="none" xmlns="http://www.w3.org/2000/svg">
<path d="M3.50033 0.916687C1.72658 0.916687 0.291992 2.35127 0.291992 4.12502C0.291992 4.92252 0.521159 5.6696 0.938242 6.34335C1.37366 7.04919 1.94658 7.65419 2.38658 8.36002C2.60199 8.70377 2.75783 9.0246 2.92283 9.39585C3.04199 9.64794 3.13824 10.0834 3.50033 10.0834C3.86241 10.0834 3.95866 9.64794 4.07324 9.39585C4.24283 9.0246 4.39408 8.70377 4.60949 8.36002C5.04949 7.65877 5.62241 7.05377 6.05782 6.34335C6.47949 5.6696 6.70866 4.92252 6.70866 4.12502C6.70866 2.35127 5.27407 0.916687 3.50033 0.916687ZM3.50033 5.38544C2.86783 5.38544 2.35449 4.8721 2.35449 4.2396C2.35449 3.6071 2.86783 3.09377 3.50033 3.09377C4.13283 3.09377 4.64616 3.6071 4.64616 4.2396C4.64616 4.8721 4.13283 5.38544 3.50033 5.38544Z" fill="#C5C5C5"/>
</svg>
