<svg width="9" height="9" viewBox="0 0 9 9" fill="none" xmlns="http://www.w3.org/2000/svg">
<g clip-path="url(#clip0_19124_615921)">
<path d="M7.8525 4.125C7.68 2.56125 6.43875 1.32 4.875 1.1475V0.375H4.125V1.1475C2.56125 1.32 1.32 2.56125 1.1475 4.125H0.375V4.875H1.1475C1.32 6.43875 2.56125 7.68 4.125 7.8525V8.625H4.875V7.8525C6.43875 7.68 7.68 6.43875 7.8525 4.875H8.625V4.125H7.8525ZM4.5 7.125C3.04875 7.125 1.875 5.95125 1.875 4.5C1.875 3.04875 3.04875 1.875 4.5 1.875C5.95125 1.875 7.125 3.04875 7.125 4.5C7.125 5.95125 5.95125 7.125 4.5 7.125Z" fill="#C5C5C5"/>
</g>
<defs>
<clipPath id="clip0_19124_615921">
<rect width="9" height="9" fill="white"/>
</clipPath>
</defs>
</svg>
